PathFileType	4	(X/Y/Z)	/Users/itak/Documents/Research/Walk-IL/dataset/trc/00092_00006.trc
DataRate	CameraRate	NumFrames	NumMarkers	Units	OrigDataRate	OrigDataStartFrame	OrigNumFrames
100.000000	100.000000	4	53	mm	100.000000	126	505
Frame#	Time	RPSI			LPSI			L3			STRN			T10			C7			CLAV			RBAK			LBAK			LSHO			LUPA			LAEL			LAOL			LWTS			LWPS			LFRA			LIFD			LHPS			LHTS			RSHO			RUPA			RAEL			RAOL			RWTS			RWPS			RFRA			RIFD			RHTS			RHPS			RBHD			LFHD			RFHD			LBHD			LHIP			RHIP			RASI			LASI			LKNE			LTHI			LANK			LTIP			LTOE			LMT1			LMT5			LHEE			RKNE			RTHI			RANK			RTIP			RTOE			RMT1			RMT5			RHEE			
		X1	Y1	Z1	X2	Y2	Z2	X3	Y3	Z3	X4	Y4	Z4	X5	Y5	Z5	X6	Y6	Z6	X7	Y7	Z7	X8	Y8	Z8	X9	Y9	Z9	X10	Y10	Z10	X11	Y11	Z11	X12	Y12	Z12	X13	Y13	Z13	X14	Y14	Z14	X15	Y15	Z15	X16	Y16	Z16	X17	Y17	Z17	X18	Y18	Z18	X19	Y19	Z19	X20	Y20	Z20	X21	Y21	Z21	X22	Y22	Z22	X23	Y23	Z23	X24	Y24	Z24	X25	Y25	Z25	X26	Y26	Z26	X27	Y27	Z27	X28	Y28	Z28	X29	Y29	Z29	X30	Y30	Z30	X31	Y31	Z31	X32	Y32	Z32	X33	Y33	Z33	X34	Y34	Z34	X35	Y35	Z35	X36	Y36	Z36	X37	Y37	Z37	X38	Y38	Z38	X39	Y39	Z39	X40	Y40	Z40	X41	Y41	Z41	X42	Y42	Z42	X43	Y43	Z43	X44	Y44	Z44	X45	Y45	Z45	X46	Y46	Z46	X47	Y47	Z47	X48	Y48	Z48	X49	Y49	Z49	X50	Y50	Z50	X51	Y51	Z51	X52	Y52	Z52	X53	Y53	Z53	

127	1.26	-1350.463256835938	1033.559814453125	49.28661346435547	-1373.5859375	1022.094177246094	-125.7772674560547	-1358.39111328125	1088.747314453125	-45.03680038452148	-1102.4951171875	1281.247314453125	-56.74800872802734	-1372.533203125	1223.483032226562	-47.0436897277832	-1306.1474609375	1488.653686523438	-50.66425323486328	-1129.315185546875	1396.275634765625	-56.16993713378906	-1369.974609375	1350.912231445312	26.89676666259766	-1332.3125	1453.007690429688	-152.4665832519531	-1230.04052734375	1454.7392578125	-228.4470367431641	-1255.18798828125	1328.736572265625	-305.9164733886719	-1248.365478515625	1114.158325195312	-328.4932250976562	-1305.605712890625	1101.2080078125	-239.0273132324219	-1161.358520507812	871.9963989257812	-273.9276123046875	-1224.606811523438	862.514892578125	-328.1921997070312	-1233.12353515625	1004.548095703125	-338.0135192871094	-1152.180053710938	686.4929809570312	-252.2828674316406	-1192.1943359375	781.1347045898438	-326.8071899414062	-1139.398559570312	790.4365234375	-280.4457702636719	-1237.35595703125	1447.098999023438	122.821159362793	-1247.456420898438	1376.16455078125	187.0587768554688	-1277.924194335938	1111.094970703125	212.0343322753906	-1265.43017578125	1089.976806640625	115.9873352050781	-1138.103393554688	859.7446899414062	170.2009582519531	-1207.364501953125	844.1533203125	221.9503326416016	-1265.432739257812	1031.117553710938	218.2613220214844	-1137.839599609375	675.6519165039062	147.391845703125	-1111.756591796875	759.5938720703125	170.9884643554688	-1168.128662109375	755.7167358398438	224.7278442382812	-1282.042236328125	1644.47802734375	15.99177265167236	-1094.050415039062	1709.640380859375	-83.66066741943359	-1119.533813476562	1695.192993164062	38.64554595947266	-1263.887084960938	1666.266235351562	-119.0349273681641	-1275.016235351562	959.67578125	-224.5061645507812	-1276.8095703125	963.0405883789062	122.7036056518555	-1155.11865234375	979.8528442382812	89.55299377441406	-1159.63671875	968.572509765625	-177.1002655029297	-1188.255615234375	497.3471069335938	-155.9125518798828	-1224.875122070312	635.5010375976562	-198.4241638183594	-1345.5732421875	52.0609130859375	-151.4052276611328	-1272.570678710938	259.1621398925781	-165.3400268554688	-1140.320190429688	48.58488082885742	-159.9000701904297	-1184.272705078125	47.37174224853516	-103.3267211914062	-1246.7451171875	44.26812744140625	-196.7735443115234	-1390.805786132812	49.84757614135742	-70.43892669677734	-1183.507446289062	518.48046875	98.46765899658203	-1186.136474609375	790.6481323242188	123.4368896484375	-1328.930908203125	48.94820785522461	113.0138092041016	-1217.921142578125	397.5038452148438	111.2574005126953	-1115.708984375	44.44261932373047	68.32319641113281	-1178.090209960938	49.71322250366211	30.45285987854004	-1204.031860351562	48.95035171508789	125.5030899047852	-1378.576049804688	53.50519180297852	57.6470947265625	
128	1.27	-1349.611083984375	1033.4140625	47.75276184082031	-1372.660400390625	1022.109436035156	-127.2685012817383	-1357.427490234375	1088.8173828125	-46.74850845336914	-1100.993530273438	1280.862915039062	-58.09226226806641	-1371.115234375	1223.549560546875	-48.99566650390625	-1304.312255859375	1488.715087890625	-52.41878128051758	-1127.588623046875	1395.9599609375	-57.49444961547852	-1368.526977539062	1350.943969726562	24.92878532409668	-1330.25341796875	1453.079345703125	-154.2415161132812	-1227.845581054688	1454.679565429688	-230.0085144042969	-1253.088623046875	1328.754516601562	-307.6289672851562	-1246.718383789062	1114.243530273438	-330.3042602539062	-1304.1669921875	1101.295288085938	-240.955078125	-1160.420776367188	871.70068359375	-275.8531799316406	-1223.638916015625	862.4864501953125	-330.2176513671875	-1231.701904296875	1004.544189453125	-339.8986511230469	-1152.036499023438	686.25341796875	-254.5437316894531	-1191.424072265625	781.0042114257812	-328.8850708007812	-1138.808227539062	790.1035766601562	-282.4239501953125	-1236.0361328125	1446.837768554688	121.2309494018555	-1246.45751953125	1375.937133789062	185.3580169677734	-1277.702514648438	1111.087524414062	210.7119598388672	-1264.662841796875	1089.798095703125	114.60400390625	-1137.488159179688	859.73095703125	169.3979949951172	-1206.978149414062	844.0556640625	220.8980712890625	-1265.236450195312	1030.994873046875	217.1160736083984	-1137.034545898438	675.6644897460938	146.4144134521484	-1111.046264648438	759.6359252929688	170.2042999267578	-1167.710693359375	755.638671875	223.7080535888672	-1280.138427734375	1644.298706054688	14.58101177215576	-1091.877075195312	1709.411499023438	-84.57980346679688	-1117.68505859375	1694.841796875	37.6395378112793	-1261.584838867188	1666.18310546875	-120.3288192749023	-1274.171508789062	959.431396484375	-225.8713531494141	-1275.973999023438	962.7443237304688	121.1950912475586	-1154.286010742188	979.7833251953125	88.09870147705078	-1158.49755859375	968.3562622070312	-178.7281951904297	-1188.242797851562	497.1165466308594	-156.9281005859375	-1224.561767578125	635.3194580078125	-199.5867767333984	-1345.706909179688	51.91497039794922	-151.5436401367188	-1272.698852539062	258.9871826171875	-165.9734649658203	-1140.334594726562	48.44988632202148	-159.9607238769531	-1184.35791015625	47.33287811279297	-103.4253463745117	-1246.726196289062	44.04447174072266	-196.9245147705078	-1390.911865234375	49.82224273681641	-70.52998352050781	-1176.825073242188	518.7772216796875	97.01054382324219	-1183.196044921875	790.7557983398438	121.3688354492188	-1328.671508789062	50.67297744750977	112.6343765258789	-1212.5498046875	397.8594055175781	110.3037948608398	-1115.634521484375	44.38553237915039	68.59839630126953	-1177.739501953125	49.84224700927734	30.62325859069824	-1203.928588867188	49.21359634399414	125.5627822875977	-1378.01904296875	56.07041168212891	57.14137268066406	
129	1.28	-1348.778442382812	1033.30810546875	46.23707580566406	-1371.72900390625	1022.152038574219	-128.7328033447266	-1356.480224609375	1088.920532226562	-48.46506118774414	-1099.470703125	1280.470336914062	-59.39715957641602	-1369.659301757812	1223.641723632812	-50.97825622558594	-1302.427368164062	1488.7880859375	-54.19199371337891	-1125.808959960938	1395.650390625	-58.77893447875977	-1367.064819335938	1351.005249023438	22.9295654296875	-1328.103759765625	1453.171630859375	-156.03662109375	-1225.539672851562	1454.632202148438	-231.560791015625	-1250.853881835938	1328.788818359375	-309.3461608886719	-1244.928588867188	1114.355346679688	-332.1170654296875	-1302.627563476562	1101.40087890625	-242.9207611083984	-1159.407470703125	871.4089965820312	-277.7681884765625	-1222.563598632812	862.4725952148438	-332.2582702636719	-1230.149536132812	1004.552001953125	-341.7918090820312	-1152.06591796875	686.0423583984375	-256.8722839355469	-1190.565673828125	780.8841552734375	-330.9662475585938	-1138.161010742188	789.766357421875	-284.3671875	-1234.708984375	1446.579345703125	119.6407852172852	-1245.458984375	1375.694946289062	183.6485900878906	-1277.4580078125	1111.064697265625	209.3751525878906	-1263.942993164062	1089.605346679688	113.1990203857422	-1136.88232421875	859.6878662109375	168.6205902099609	-1206.646240234375	843.9451293945312	219.8485412597656	-1265.036010742188	1030.870971679688	215.9406433105469	-1136.330688476562	675.6103515625	145.4980163574219	-1110.438110351562	759.6368408203125	169.4404449462891	-1167.36083984375	755.5443115234375	222.7266693115234	-1278.181274414062	1644.132202148438	13.15603828430176	-1089.633178710938	1709.19140625	-85.47159576416016	-1115.788696289062	1694.509521484375	36.66096496582031	-1259.192749023438	1666.120361328125	-121.6393585205078	-1273.302612304688	959.1848754882812	-227.1691131591797	-1275.195556640625	962.5101318359375	119.7329483032227	-1153.490844726562	979.7520751953125	86.71395111083984	-1157.317993164062	968.1461791992188	-180.3221740722656	-1188.224853515625	496.8711242675781	-158.0275115966797	-1224.251953125	635.1292114257812	-200.7562713623047	-1345.840576171875	51.76518249511719	-151.6813049316406	-1272.852783203125	258.8155212402344	-166.6446838378906	-1140.348022460938	48.32290649414062	-160.0706634521484	-1184.430908203125	47.30778884887695	-103.5583953857422	-1246.708984375	43.79044723510742	-197.0938415527344	-1390.980224609375	49.78089141845703	-70.59372711181641	-1169.48583984375	519.301513671875	95.59644317626953	-1180.111572265625	790.9629516601562	119.3505630493164	-1328.334228515625	52.86538696289062	112.1226806640625	-1206.676635742188	398.4600524902344	109.3602142333984	-1115.5703125	44.37813186645508	68.99510955810547	-1177.274658203125	50.04985046386719	30.84932899475098	-1203.863403320312	49.62983703613281	125.6127777099609	-1377.298950195312	59.23871994018555	56.44995498657227	
130	1.29	-1347.963500976562	1033.244262695312	44.73146438598633	-1370.773681640625	1022.218994140625	-130.1700286865234	-1355.535400390625	1089.064086914062	-50.18229675292969	-1097.92041015625	1280.079833984375	-60.65842056274414	-1368.166625976562	1223.767333984375	-52.98227310180664	-1300.483032226562	1488.8671875	-55.96985626220703	-1123.971923828125	1395.352783203125	-60.01823806762695	-1365.580322265625	1351.10302734375	20.91164779663086	-1325.858276367188	1453.289672851562	-157.8404083251953	-1223.118286132812	1454.603759765625	-233.0921936035156	-1248.481567382812	1328.848388671875	-311.0582275390625	-1242.988647460938	1114.495361328125	-333.9245910644531	-1300.970092773438	1101.533203125	-244.9124450683594	-1158.3125	871.1286010742188	-279.6600341796875	-1221.372680664062	862.4835205078125	-334.3124694824219	-1228.456909179688	1004.581604003906	-343.68603515625	-1152.191772460938	685.851318359375	-259.2293395996094	-1189.621215820312	780.7864990234375	-333.0515747070312	-1137.443969726562	789.4296875	-286.2684631347656	-1233.358520507812	1446.332885742188	118.0619735717773	-1244.45458984375	1375.446655273438	181.939208984375	-1277.183349609375	1111.035034179688	208.0213470458984	-1263.253295898438	1089.4072265625	111.7736129760742	-1136.302612304688	859.6317138671875	167.8759155273438	-1206.374877929688	843.826904296875	218.7997283935547	-1264.837524414062	1030.754150390625	214.7269287109375	-1135.74560546875	675.484130859375	144.6605072021484	-1109.923095703125	759.611083984375	168.7130279541016	-1167.081665039062	755.4495239257812	221.7863159179688	-1276.169921875	1643.982788085938	11.71979522705078	-1087.317260742188	1708.977905273438	-86.33345794677734	-1113.839233398438	1694.200439453125	35.71284484863281	-1256.72607421875	1666.081665039062	-122.971809387207	-1272.4033203125	958.9415283203125	-228.4090576171875	-1274.463623046875	962.345703125	118.3212509155273	-1152.749267578125	979.7587280273438	85.39299774169922	-1156.131591796875	967.9357299804688	-181.8503265380859	-1188.189697265625	496.6136474609375	-159.1773529052734	-1223.942138671875	634.9336547851562	-201.9122619628906	-1345.966430664062	51.61844253540039	-151.8125610351562	-1272.998046875	258.6413879394531	-167.3258972167969	-1140.361206054688	48.20308303833008	-160.2197265625	-1184.488159179688	47.2913818359375	-103.7116012573242	-1246.696655273438	43.51860427856445	-197.2696533203125	-1391.017456054688	49.72993087768555	-70.63069915771484	-1161.509521484375	520.0911254882812	94.24330902099609	-1176.914428710938	791.2855224609375	117.4207077026367	-1327.884155273438	55.54737091064453	111.4452362060547	-1200.286987304688	399.3364868164062	108.423225402832	-1115.488037109375	44.43960189819336	69.51362609863281	-1176.665771484375	50.35725021362305	31.11736297607422	-1203.832763671875	50.23135757446289	125.6302032470703	-1376.351684570312	63.01587677001953	55.52868270874023	
